<svg width="23" height="23" viewBox="0 0 23 23" fill="none" xmlns="http://www.w3.org/2000/svg">
<path d="M15.3334 17.25C16.3875 17.25 17.25 18.1125 17.25 19.1667C17.25 20.2208 16.3875 21.0833 15.3334 21.0833C14.2792 21.0833 13.4167 20.2208 13.4167 19.1667C13.4167 18.1125 14.2792 17.25 15.3334 17.25ZM15.3334 18.2083C14.8063 18.2083 14.375 18.6396 14.375 19.1667C14.375 19.6938 14.8063 20.125 15.3334 20.125C15.8605 20.125 16.2917 19.6938 16.2917 19.1667C16.2917 18.6396 15.8605 18.2083 15.3334 18.2083ZM6.70837 17.25C7.76254 17.25 8.62504 18.1125 8.62504 19.1667C8.62504 20.2208 7.76254 21.0833 6.70837 21.0833C5.65421 21.0833 4.79171 20.2208 4.79171 19.1667C4.79171 18.1125 5.65421 17.25 6.70837 17.25ZM6.70837 18.2083C6.18129 18.2083 5.75004 18.6396 5.75004 19.1667C5.75004 19.6938 6.18129 20.125 6.70837 20.125C7.23546 20.125 7.66671 19.6938 7.66671 19.1667C7.66671 18.6396 7.23546 18.2083 6.70837 18.2083ZM17.25 5.75H4.09212L6.53587 11.5H14.375C14.6913 11.5 14.9692 11.3467 15.1417 11.1167L18.0167 7.28333C18.1413 7.12042 18.2084 6.91917 18.2084 6.70833C18.2084 6.18125 17.7771 5.75 17.25 5.75ZM14.375 12.4583H6.58379L5.84587 13.9533L5.75004 14.375C5.75004 14.9021 6.18129 15.3333 6.70837 15.3333H17.25V16.2917H6.70837C5.65421 16.2917 4.79171 15.4292 4.79171 14.375C4.79171 14.0396 4.87796 13.7233 5.03129 13.4454L5.72129 12.0367L2.24254 3.83333H0.958374V2.875H2.87504L3.68962 4.79167H17.25C18.3042 4.79167 19.1667 5.65417 19.1667 6.70833C19.1667 7.1875 19.0038 7.59 18.7355 7.91583L15.9467 11.6438C15.6017 12.1325 15.0267 12.4583 14.375 12.4583Z" fill="black"/>
</svg>
