<svg width="23" height="23" viewBox="0 0 23 23" fill="none" xmlns="http://www.w3.org/2000/svg">
<path d="M5.14667 11.9062C4.40875 11.1875 3.95833 10.1525 3.95833 9.03125C3.95833 6.77917 5.77917 4.95833 8.03125 4.95833C9.54542 4.95833 10.8679 5.7825 11.5675 7.00917H12.6408C13.3404 5.7825 14.6629 4.95833 16.1771 4.95833C18.4292 4.95833 20.25 6.77917 20.25 9.03125C20.25 10.1525 19.7708 11.1875 19.0617 11.9062L12.1042 18.8542L5.14667 11.9062ZM19.7325 12.5867C20.6429 11.6667 21.2083 10.4208 21.2083 9.03125C21.2083 6.25208 18.9563 4 16.1771 4C14.5 4 13.0146 4.81458 12.1042 6.07958C11.1938 4.81458 9.70833 4 8.03125 4C5.25208 4 3 6.25208 3 9.03125C3 10.4208 3.56542 11.6667 4.47583 12.5867L12.1042 20.215L19.7325 12.5867Z" fill="black"/>
</svg>
