<svg width="24" height="24" viewBox="0 0 24 24" fill="none" xmlns="http://www.w3.org/2000/svg">
<path d="M16.4238 7.93615C16.0008 7.93615 15.657 7.59295 15.657 7.16995V5.91655C15.657 5.49235 16.0008 5.14795 16.4238 5.14795H17.6766C18.1002 5.14795 18.4446 5.49235 18.4446 5.91655V7.16935C18.4446 7.59235 18.1002 7.93555 17.6766 7.93555H16.4238V7.93615ZM16.3674 7.22575H17.7336V5.85955H16.3674V7.22575Z" fill="black"/>
<path d="M12.0324 10.0439C10.8072 10.0439 9.8112 11.0405 9.8112 12.2657C9.8112 13.4909 10.8072 14.4875 12.0324 14.4875C13.2582 14.4875 14.2548 13.4909 14.2548 12.2657C14.2548 11.0405 13.2582 10.0439 12.0324 10.0439ZM12.0324 13.6583C11.2656 13.6583 10.641 13.0337 10.641 12.2663C10.641 11.4995 11.2656 10.8755 12.0324 10.8755C12.7998 10.8755 13.4244 11.4995 13.4244 12.2663C13.4244 13.0337 12.7998 13.6583 12.0324 13.6583Z" fill="black"/>
<path d="M20.565 9.22859V5.68859C20.565 4.40459 19.521 3.35999 18.2376 3.35999H5.7492C4.4658 3.35999 3.4218 4.40459 3.4218 5.68859V18.3108C3.4218 19.596 4.4658 20.6406 5.7492 20.6406H18.2376C19.521 20.6406 20.565 19.596 20.565 18.3108L20.5674 9.42659C20.5746 9.39599 20.5782 9.36418 20.5782 9.33538C20.5782 9.30658 20.574 9.27479 20.565 9.22859ZM18.2376 4.19039C19.0632 4.19039 19.7346 4.86239 19.7346 5.68798V8.92078L15.027 8.90519C14.1918 8.15159 13.1142 7.73699 11.991 7.73699C11.3088 7.73699 10.6512 7.88579 10.0344 8.17979L9.864 8.26379C9.423 8.46539 9.1098 8.77139 9.0786 8.79899C9.0378 8.83319 8.9934 8.86978 8.916 8.92078H4.2516V5.68798C4.2516 5.05859 4.6494 4.49279 5.2404 4.27799L5.3904 4.22219C5.3922 4.22159 5.5866 4.18979 6.0906 4.18979H18.2376V4.19039ZM11.9916 15.9678C9.9522 15.9678 8.292 14.307 8.292 12.2658C8.292 10.2264 9.9522 8.56618 11.9916 8.56618C14.0334 8.56618 15.6948 10.2264 15.6948 12.2658C15.6948 14.3076 14.034 15.9678 11.9916 15.9678ZM4.2516 9.75119H8.2266L8.1678 9.84299C7.7052 10.5708 7.4616 11.4084 7.4616 12.2658C7.4616 14.7648 9.4938 16.7976 11.9916 16.7976C14.4912 16.7976 16.5252 14.7648 16.5252 12.2658C16.5252 11.4066 16.281 10.569 15.8184 9.84238L15.759 9.75119H19.7346V18.3108C19.7346 19.1376 19.0632 19.8108 18.2376 19.8108H5.7492C4.9236 19.8108 4.2516 19.1376 4.2516 18.3108V9.75119Z" fill="black"/>
</svg>
