<svg width="65" height="65" viewBox="0 0 65 65" fill="none" xmlns="http://www.w3.org/2000/svg">
<path d="M9.86417 0.85347C8.57178 1.32927 6.17163 2.75667 4.50998 4.18407C-1.95196 9.49718 -1.39808 18.0616 5.71006 23.6919C10.6027 27.5776 14.6645 29.3222 33.2195 35.6662C41.2508 38.4417 49.6513 41.693 51.8668 42.8825C59.4365 47.0061 61.652 52.795 57.5902 57.9495C54.0823 62.4696 52.7899 62.7075 29.8962 62.4696L9.21797 62.2317L19.2801 51.209C24.7266 45.1822 29.25 39.7105 29.25 39.1554C29.25 38.2831 23.9881 36.6971 23.2496 37.4108C19.5571 40.8207 -0.105693 63.8177 0.263561 64.2935C0.909755 65.3244 49.282 65.1658 53.4361 64.2142C67.5601 60.8043 69.1294 43.9927 56.0209 36.8557C53.99 35.7455 46.1434 32.6528 38.666 30.0359C12.2643 20.7578 8.11021 18.5374 6.07931 12.6692C4.87924 9.17998 6.17163 6.16657 9.95648 3.70827C12.172 2.36017 14.3875 2.20157 33.3118 1.88437C46.6973 1.64647 54.1746 1.88437 54.1746 2.36017C54.1746 2.75667 50.0205 7.67327 44.9433 13.145C39.8661 18.6167 35.7119 23.3747 35.7119 23.6919C35.7119 24.3263 39.8661 26.1502 41.1584 26.1502C42.1739 26.1502 63.406 2.12227 63.406 0.93277C63.406 -0.256737 13.3721 -0.336037 9.86417 0.85347Z" fill="black"/>
</svg>
